<mxfile host="65bd71144e">
    <diagram id="3XdHDcJ4mFV7y5PHWOli" name="Page-1">
        <mxGraphModel dx="702" dy="571" grid="0" gridSize="10" guides="1" tooltips="1" connect="1" arrows="1" fold="1" page="1" pageScale="1" pageWidth="850" pageHeight="1100" background="#000019" math="0" shadow="0">
            <root>
                <mxCell id="0"/>
                <mxCell id="1" parent="0"/>
                <mxCell id="2" value="Hardware Aufbau" style="swimlane;startSize=20;horizontal=1;containerType=tree;fontSize=13;fillStyle=solid;swimlaneFillColor=none;fillColor=#2D2536;strokeColor=#E6E6E6;fontColor=#E6E6E6;" parent="1" vertex="1">
                    <mxGeometry x="60" y="80" width="472" height="466" as="geometry"/>
                </mxCell>
                <mxCell id="4" value="Mikrofon" style="whiteSpace=wrap;html=1;treeFolding=1;treeMoving=1;newEdgeStyle={&quot;edgeStyle&quot;:&quot;elbowEdgeStyle&quot;,&quot;startArrow&quot;:&quot;none&quot;,&quot;endArrow&quot;:&quot;none&quot;};fillColor=none;strokeColor=#FF8000;fontColor=#E6E6E6;" parent="2" vertex="1">
                    <mxGeometry x="19" y="35" width="120" height="40" as="geometry"/>
                </mxCell>
                <mxCell id="77" value="" style="edgeStyle=elbowEdgeStyle;html=1;elbow=vertical;startArrow=none;endArrow=blockThin;endFill=0;strokeColor=#E6E6E6;jumpStyle=none;" parent="2" source="4" target="78" edge="1">
                    <mxGeometry relative="1" as="geometry"/>
                </mxCell>
                <mxCell id="78" value="Interface" style="whiteSpace=wrap;html=1;treeFolding=1;treeMoving=1;newEdgeStyle={&quot;edgeStyle&quot;:&quot;elbowEdgeStyle&quot;,&quot;startArrow&quot;:&quot;none&quot;,&quot;endArrow&quot;:&quot;none&quot;};fillColor=none;strokeColor=#66CC00;fontColor=#E6E6E6;" parent="2" vertex="1">
                    <mxGeometry x="260" y="129" width="120" height="40" as="geometry"/>
                </mxCell>
                <mxCell id="79" value="" style="edgeStyle=elbowEdgeStyle;html=1;elbow=vertical;startArrow=none;endArrow=blockThin;strokeColor=#E6E6E6;endFill=0;" parent="2" source="78" target="80" edge="1">
                    <mxGeometry relative="1" as="geometry">
                        <mxPoint x="139" y="155" as="sourcePoint"/>
                    </mxGeometry>
                </mxCell>
                <mxCell id="80" value="EchoShield" style="whiteSpace=wrap;html=1;treeFolding=1;treeMoving=1;newEdgeStyle={&quot;edgeStyle&quot;:&quot;elbowEdgeStyle&quot;,&quot;startArrow&quot;:&quot;none&quot;,&quot;endArrow&quot;:&quot;none&quot;};fillColor=none;strokeColor=#00FFFF;fontColor=#E6E6E6;gradientColor=default;strokeWidth=2;" parent="2" vertex="1">
                    <mxGeometry x="28" y="223" width="120" height="40" as="geometry"/>
                </mxCell>
                <mxCell id="81" value="" style="edgeStyle=elbowEdgeStyle;html=1;elbow=vertical;startArrow=none;endArrow=blockThin;strokeColor=#E6E6E6;endFill=0;" parent="2" source="80" target="82" edge="1">
                    <mxGeometry relative="1" as="geometry">
                        <mxPoint x="380" y="249" as="sourcePoint"/>
                    </mxGeometry>
                </mxCell>
                <mxCell id="82" value="Mischpult" style="whiteSpace=wrap;html=1;treeFolding=1;treeMoving=1;newEdgeStyle={&quot;edgeStyle&quot;:&quot;elbowEdgeStyle&quot;,&quot;startArrow&quot;:&quot;none&quot;,&quot;endArrow&quot;:&quot;none&quot;};fillColor=none;strokeColor=#6600CC;fontColor=#E6E6E6;" parent="2" vertex="1">
                    <mxGeometry x="272" y="320" width="120" height="40" as="geometry"/>
                </mxCell>
                <mxCell id="86" value="&lt;font style=&quot;font-size: 9px;&quot;&gt;XLR-Kabel&lt;/font&gt;" style="text;strokeColor=none;fillColor=none;html=1;fontSize=24;fontStyle=1;verticalAlign=middle;align=center;" parent="2" vertex="1">
                    <mxGeometry x="168" y="80" width="56" height="20" as="geometry"/>
                </mxCell>
                <mxCell id="88" value="&lt;font style=&quot;font-size: 9px;&quot;&gt;USB-A&lt;/font&gt;" style="text;strokeColor=none;fillColor=none;html=1;fontSize=24;fontStyle=1;verticalAlign=middle;align=center;" parent="2" vertex="1">
                    <mxGeometry x="201" y="175" width="56" height="18" as="geometry"/>
                </mxCell>
                <mxCell id="89" value="&lt;font style=&quot;font-size: 9px;&quot;&gt;USB-A&lt;/font&gt;" style="text;strokeColor=none;fillColor=none;html=1;fontSize=24;fontStyle=1;verticalAlign=middle;align=center;" parent="2" vertex="1">
                    <mxGeometry x="189" y="268" width="56" height="20" as="geometry"/>
                </mxCell>
                <mxCell id="90" value="&lt;font style=&quot;font-size: 9px;&quot;&gt;XLR-Kabel&lt;/font&gt;" style="text;strokeColor=none;fillColor=none;html=1;fontSize=24;fontStyle=1;verticalAlign=middle;align=center;" parent="2" vertex="1">
                    <mxGeometry x="183" y="384" width="56" height="20" as="geometry"/>
                </mxCell>
                <mxCell id="93" value="Übersetzte Geräusche in elektrische Spannungsänderung" style="rounded=1;shadow=0;glass=0;sketch=0;strokeColor=#FF8000;strokeWidth=2;fontSize=9;fillColor=none;gradientColor=default;arcSize=25;fontColor=#E6E6E6;labelBorderColor=none;labelBackgroundColor=none;whiteSpace=wrap;html=1;" parent="2" vertex="1">
                    <mxGeometry x="295" y="25" width="135" height="60" as="geometry"/>
                </mxCell>
                <mxCell id="104" style="edgeStyle=none;html=1;fontSize=9;endArrow=none;endFill=0;dashed=1;dashPattern=1 3;strokeWidth=2;strokeColor=#E6E6E6;" parent="2" source="94" target="78" edge="1">
                    <mxGeometry relative="1" as="geometry"/>
                </mxCell>
                <mxCell id="94" value="Diese Spannungsänderungen werden in Digitale Signale umgewandelt" style="rounded=1;whiteSpace=wrap;html=1;shadow=0;glass=0;sketch=0;strokeColor=#66CC00;strokeWidth=2;fontSize=9;fillColor=none;gradientColor=default;arcSize=25;fontColor=#E6E6E6;" parent="2" vertex="1">
                    <mxGeometry x="59" y="119" width="135" height="60" as="geometry"/>
                </mxCell>
                <mxCell id="95" value="Innerhalb des Signales kann es Rückkopplung geben, diese wird entfernt" style="rounded=1;whiteSpace=wrap;html=1;shadow=0;glass=0;sketch=0;strokeColor=#00FFFF;strokeWidth=2;fontSize=9;fillColor=none;gradientColor=default;arcSize=25;fontColor=#E6E6E6;" parent="2" vertex="1">
                    <mxGeometry x="317" y="213" width="135" height="60" as="geometry"/>
                </mxCell>
                <mxCell id="84" value="Lautsprecher" style="whiteSpace=wrap;html=1;treeFolding=1;treeMoving=1;newEdgeStyle={&quot;edgeStyle&quot;:&quot;elbowEdgeStyle&quot;,&quot;startArrow&quot;:&quot;none&quot;,&quot;endArrow&quot;:&quot;none&quot;};fillColor=none;strokeColor=#CC0000;fontColor=#E6E6E6;" parent="2" vertex="1">
                    <mxGeometry x="28" y="407" width="120" height="40" as="geometry"/>
                </mxCell>
                <mxCell id="83" value="" style="edgeStyle=elbowEdgeStyle;html=1;elbow=vertical;startArrow=none;endArrow=blockThin;strokeColor=#E6E6E6;endFill=0;" parent="2" source="82" target="84" edge="1">
                    <mxGeometry relative="1" as="geometry">
                        <mxPoint x="139" y="341" as="sourcePoint"/>
                    </mxGeometry>
                </mxCell>
                <mxCell id="96" value="Ermöglicht manuelle Bearbeitung des Signales" style="rounded=1;whiteSpace=wrap;html=1;shadow=0;glass=0;sketch=0;strokeColor=#6600CC;strokeWidth=2;fontSize=9;fillColor=none;gradientColor=default;arcSize=25;fontColor=#E6E6E6;" parent="2" vertex="1">
                    <mxGeometry x="20.5" y="313" width="135" height="60" as="geometry"/>
                </mxCell>
                <mxCell id="97" value="Signal wird wieder in Akustik umgesetzt" style="rounded=1;whiteSpace=wrap;html=1;shadow=0;glass=0;sketch=0;strokeColor=#CC0000;strokeWidth=2;fontSize=9;fillColor=none;gradientColor=default;arcSize=25;fontColor=#E6E6E6;" parent="2" vertex="1">
                    <mxGeometry x="290" y="397" width="135" height="60" as="geometry"/>
                </mxCell>
                <mxCell id="101" value="" style="endArrow=none;dashed=1;html=1;dashPattern=1 3;strokeWidth=2;fontSize=9;entryX=1;entryY=0.5;entryDx=0;entryDy=0;exitX=0;exitY=0.5;exitDx=0;exitDy=0;strokeColor=#E6E6E6;" parent="2" source="95" target="80" edge="1">
                    <mxGeometry width="50" height="50" relative="1" as="geometry">
                        <mxPoint x="258" y="243" as="sourcePoint"/>
                        <mxPoint x="381" y="203" as="targetPoint"/>
                    </mxGeometry>
                </mxCell>
                <mxCell id="100" value="" style="endArrow=none;dashed=1;html=1;dashPattern=1 3;strokeWidth=2;fontSize=9;exitX=1;exitY=0.5;exitDx=0;exitDy=0;entryX=0;entryY=0.5;entryDx=0;entryDy=0;strokeColor=#E6E6E6;" parent="2" source="4" target="93" edge="1">
                    <mxGeometry width="50" height="50" relative="1" as="geometry">
                        <mxPoint x="175" y="56" as="sourcePoint"/>
                        <mxPoint x="321" y="-46" as="targetPoint"/>
                    </mxGeometry>
                </mxCell>
                <mxCell id="105" value="" style="endArrow=none;dashed=1;html=1;dashPattern=1 3;strokeWidth=2;fontSize=9;exitX=1;exitY=0.5;exitDx=0;exitDy=0;entryX=0;entryY=0.5;entryDx=0;entryDy=0;strokeColor=#E6E6E6;" parent="2" source="96" target="82" edge="1">
                    <mxGeometry width="50" height="50" relative="1" as="geometry">
                        <mxPoint x="249" y="341" as="sourcePoint"/>
                        <mxPoint x="299" y="291" as="targetPoint"/>
                    </mxGeometry>
                </mxCell>
                <mxCell id="106" value="" style="endArrow=none;dashed=1;html=1;dashPattern=1 3;strokeWidth=2;fontSize=9;exitX=1;exitY=0.5;exitDx=0;exitDy=0;entryX=0;entryY=0.5;entryDx=0;entryDy=0;strokeColor=#E6E6E6;" parent="2" source="84" target="97" edge="1">
                    <mxGeometry width="50" height="50" relative="1" as="geometry">
                        <mxPoint x="237" y="453" as="sourcePoint"/>
                        <mxPoint x="287" y="403" as="targetPoint"/>
                    </mxGeometry>
                </mxCell>
            </root>
        </mxGraphModel>
    </diagram>
</mxfile>